<svg version="1.1" xmlns="http://www.w3.org/2000/svg" viewBox="0 0 1098.4296875 803" width="3295.2890625" height="2409">
  <!-- svg-source:excalidraw -->
  
  <defs>
    <style class="style-fonts">
      @font-face {
        font-family: "Virgil";
        src: url("https://excalidraw.com/Virgil.woff2");
      }
      @font-face {
        font-family: "Cascadia";
        src: url("https://excalidraw.com/Cascadia.woff2");
      }
      @font-face {
        font-family: "Assistant";
        src: url("https://excalidraw.com/Assistant-Regular.woff2");
      }
    </style>
    
  </defs>
  <rect x="0" y="0" width="1098.4296875" height="803" fill="#ffffff"></rect><g stroke-linecap="round" transform="translate(676.3671875 466) rotate(0 206.03125 69.5)"><path d="M0 0 C154.57 1.75, 309.87 0.5, 412.06 0 M0 0 C159.9 -1.67, 319.57 -1.79, 412.06 0 M412.06 0 C411.27 32.81, 415.21 68.09, 412.06 139 M412.06 0 C413.47 33.2, 413.44 67.34, 412.06 139 M412.06 139 C295.53 137.4, 177.6 137.88, 0 139 M412.06 139 C317.64 137.07, 222.7 137.28, 0 139 M0 139 C-1.86 101.84, -0.5 67.78, 0 0 M0 139 C0.21 91.81, -1.46 44.9, 0 0" stroke="#1e1e1e" stroke-width="2" fill="none"></path></g><g stroke-linecap="round" transform="translate(10 267) rotate(0 316.68359374999994 263)"><path d="M0 0 C167.64 -2.45, 336.32 -1.65, 633.37 0 M0 0 C249.96 -1.95, 500.49 -1.86, 633.37 0 M633.37 0 C632.06 130.45, 630.81 261.97, 633.37 526 M633.37 0 C634.15 113.39, 633.97 226.9, 633.37 526 M633.37 526 C481.01 525.59, 328.87 525.07, 0 526 M633.37 526 C496.71 525.99, 360.2 525.95, 0 526 M0 526 C1.54 352.9, 1.88 178.62, 0 0 M0 526 C-1.9 395.71, -1.55 266.32, 0 0" stroke="#1e1e1e" stroke-width="2" fill="none"></path></g><g stroke-linecap="round" transform="translate(175.70703125 10) rotate(0 128.390625 57.5)"><path d="M0 0 C101.08 1.72, 200.85 0.12, 256.78 0 M0 0 C98.99 -0.66, 198.41 -2.15, 256.78 0 M256.78 0 C256.74 27.35, 256.21 52.2, 256.78 115 M256.78 0 C256.95 30.33, 256.51 59.99, 256.78 115 M256.78 115 C184.51 114.75, 113.16 115.92, 0 115 M256.78 115 C180.93 115.89, 105.92 115.08, 0 115 M0 115 C0.8 84.87, -0.97 54.71, 0 0 M0 115 C1.03 87.32, 0.64 58.58, 0 0" stroke="#1e1e1e" stroke-width="2" fill="none"></path></g><g transform="translate(262.76769256591797 15) rotate(0 41.32996368408203 12.5)"><text x="41.32996368408203" y="17.52" font-family="Virgil, Segoe UI Emoji" font-size="20px" fill="#1e1e1e" text-anchor="middle" style="white-space: pre;" direction="ltr" dominant-baseline="alphabetic">Internet</text></g><g stroke-linecap="round" transform="translate(210.70703125 56) rotate(0 87.390625 22)"><path d="M0 0 C49.67 -1.81, 97.28 -3.2, 174.78 0 M0 0 C63.33 -2.49, 126.93 -0.52, 174.78 0 M174.78 0 C172.83 12.59, 173.71 24.47, 174.78 44 M174.78 0 C174.11 14.12, 174.48 26.97, 174.78 44 M174.78 44 C116.87 43.82, 62.22 42.49, 0 44 M174.78 44 C116.8 43.67, 57.9 44.35, 0 44 M0 44 C-1.21 28.21, -1.23 7.63, 0 0 M0 44 C-0.43 34.53, 0.76 23.89, 0 0" stroke="#1e1e1e" stroke-width="2" fill="none"></path></g><g transform="translate(229.43772888183594 65.5) rotate(0 68.65992736816406 12.5)"><text x="68.65992736816406" y="17.52" font-family="Virgil, Segoe UI Emoji" font-size="20px" fill="#1e1e1e" text-anchor="middle" style="white-space: pre;" direction="ltr" dominant-baseline="alphabetic">Client Devices</text></g><g stroke-linecap="round" transform="translate(258.6709502749919 295.64923747276686) rotate(0 83.25578521193387 25.21132897603486)"><path d="M0 0 C63.81 -1.48, 125.45 -0.61, 166.51 0 M0 0 C63.49 2.63, 128.2 1.07, 166.51 0 M166.51 0 C165.27 19.65, 166.32 37.83, 166.51 50.42 M166.51 0 C165.98 17.29, 166.43 34.84, 166.51 50.42 M166.51 50.42 C123.7 50.16, 81.79 50.16, 0 50.42 M166.51 50.42 C112.12 49.08, 59.27 49.51, 0 50.42 M0 50.42 C-0.81 31.53, -1.33 16.3, 0 0 M0 50.42 C0.96 31.34, -0.65 13.15, 0 0" stroke="#1e1e1e" stroke-width="2" fill="none"></path></g><g transform="translate(288.06679591173054 308.3605664488017) rotate(0 53.85993957519531 12.5)"><text x="53.85993957519531" y="17.52" font-family="Virgil, Segoe UI Emoji" font-size="20px" fill="#1e1e1e" text-anchor="middle" style="white-space: pre;" direction="ltr" dominant-baseline="alphabetic">Web Server</text></g><g stroke-linecap="round" transform="translate(218.12614636553337 544.3246187363834) rotate(0 123.80058912139242 25.211328976034864)"><path d="M0 0 C68.64 1.09, 136.54 1.12, 247.6 0 M0 0 C49.44 -2.46, 99.98 -2.68, 247.6 0 M247.6 0 C247.63 16.41, 248.45 32.27, 247.6 50.42 M247.6 0 C247.7 16.4, 247.05 33.37, 247.6 50.42 M247.6 50.42 C166.66 49.05, 85.02 50.16, 0 50.42 M247.6 50.42 C192.88 50.56, 136.96 49.83, 0 50.42 M0 50.42 C-1.33 31.53, 1.54 11.97, 0 0 M0 50.42 C-1.25 33.64, -0.15 19.04, 0 0" stroke="#1e1e1e" stroke-width="2" fill="none"></path></g><g transform="translate(255.09683283799995 557.0359477124183) rotate(0 86.82990264892578 12.5)"><text x="86.82990264892578" y="17.52" font-family="Virgil, Segoe UI Emoji" font-size="20px" fill="#1e1e1e" text-anchor="middle" style="white-space: pre;" direction="ltr" dominant-baseline="alphabetic">Application Server</text></g><g stroke-linecap="round" transform="translate(63.43977384124929 713.9281045751634) rotate(0 115.11812399692329 25.21132897603485)"><path d="M0 0 C48.29 0.16, 91.97 -0.25, 230.24 0 M0 0 C92.22 0.42, 183.37 0.79, 230.24 0 M230.24 0 C231.35 15.38, 231.08 32.7, 230.24 50.42 M230.24 0 C229.91 11.84, 230.64 25.31, 230.24 50.42 M230.24 50.42 C170.25 50.21, 108.13 49.16, 0 50.42 M230.24 50.42 C163.29 50.67, 96.32 50.66, 0 50.42 M0 50.42 C1.68 39.16, 0.82 31.18, 0 0 M0 50.42 C0.67 40.05, -0.06 28.17, 0 0" stroke="#1e1e1e" stroke-width="2" fill="none"></path></g><g transform="translate(93.26799610477417 726.6394335511982) rotate(0 85.28990173339844 12.5)"><text x="85.28990173339844" y="17.52" font-family="Virgil, Segoe UI Emoji" font-size="20px" fill="#1e1e1e" text-anchor="middle" style="white-space: pre;" direction="ltr" dominant-baseline="alphabetic">Database Server</text></g><g stroke-linecap="round" transform="translate(391.4957989045877 436.60348583877993) rotate(0 100.13243776982324 25.211328976034864)"><path d="M0 0 C47.67 -0.44, 100.68 0.42, 200.26 0 M0 0 C48.71 1.15, 97.11 1.63, 200.26 0 M200.26 0 C201.32 13.85, 199.56 29.06, 200.26 50.42 M200.26 0 C200.34 11.52, 199.67 23.48, 200.26 50.42 M200.26 50.42 C146.27 50.4, 94.87 52.62, 0 50.42 M200.26 50.42 C133.71 48.99, 65 48.75, 0 50.42 M0 50.42 C0.1 37.07, -1.82 19.04, 0 0 M0 50.42 C-0.61 38.8, -0.62 27.05, 0 0" stroke="#1e1e1e" stroke-width="2" fill="none"></path></g><g transform="translate(420.03830900107107 449.3148148148148) rotate(0 71.58992767333984 12.499999999999993)"><text x="71.58992767333984" y="17.52" font-family="Virgil, Segoe UI Emoji" font-size="20px" fill="#1e1e1e" text-anchor="middle" style="white-space: pre;" direction="ltr" dominant-baseline="alphabetic">Load Balancer</text></g><g stroke-linecap="round" transform="translate(712.5073597787784 514.968085106383) rotate(0 169.89107772122168 32.531914893617014)"><path d="M0 0 C85.71 1.34, 168.05 2.76, 339.78 0 M0 0 C73.41 1.01, 146.33 1.28, 339.78 0 M339.78 0 C339.07 16.04, 338.63 30.35, 339.78 65.06 M339.78 0 C339.6 14.36, 339.6 28.29, 339.78 65.06 M339.78 65.06 C227.38 65.57, 115.67 64.84, 0 65.06 M339.78 65.06 C255.19 63.31, 171.83 64.27, 0 65.06 M0 65.06 C-1.63 46.74, -1.34 32.38, 0 0 M0 65.06 C-0.19 39.95, 0.19 14.14, 0 0" stroke="#1e1e1e" stroke-width="2" fill="none"></path></g><g transform="translate(743.9785919189453 535) rotate(0 138.4198455810547 12.5)"><text x="138.4198455810547" y="17.52" font-family="Virgil, Segoe UI Emoji" font-size="20px" fill="#1e1e1e" text-anchor="middle" style="white-space: pre;" direction="ltr" dominant-baseline="alphabetic">Secondary Database Server</text></g><g mask="url(#mask-K_AoJCo_FtgDeQg84MJv6)" stroke-linecap="round"><g transform="translate(302.14763573520486 101) rotate(0 17.12953883323297 94.67461873638342)"><path d="M-0.34 -0.7 C5.68 30.5, 29.37 156.74, 35.2 188.34 M1.68 1.55 C7.7 33.37, 29.35 157.95, 34.75 189.34" stroke="#1e1e1e" stroke-width="2" fill="none"></path></g><g transform="translate(302.14763573520486 101) rotate(0 17.12953883323297 94.67461873638342)"><path d="M22.31 167.65 C24.15 174.12, 26.41 178.05, 34.75 189.34 M22.31 167.65 C25.43 173.78, 28.22 179.27, 34.75 189.34" stroke="#1e1e1e" stroke-width="2" fill="none"></path></g><g transform="translate(302.14763573520486 101) rotate(0 17.12953883323297 94.67461873638342)"><path d="M39.16 164.73 C37.25 171.8, 35.73 176.39, 34.75 189.34 M39.16 164.73 C37.92 171.64, 36.34 177.88, 34.75 189.34" stroke="#1e1e1e" stroke-width="2" fill="none"></path></g></g><mask id="mask-K_AoJCo_FtgDeQg84MJv6"><rect x="0" y="0" fill="#fff" width="436.4067134016708" height="390.34923747276684"></rect><rect x="246.7972475054496" y="170.67461873638342" fill="#000" width="144.95985412597656" height="50" opacity="1"></rect></mask><g transform="translate(246.7972475054496 170.67461873638342) rotate(0 72.77964208386834 24.646266900841155)"><text x="72.47992706298828" y="17.52" font-family="Virgil, Segoe UI Emoji" font-size="20px" fill="#1e1e1e" text-anchor="middle" style="white-space: pre;" direction="ltr" dominant-baseline="alphabetic">HTTP/HTTPS </text><text x="72.47992706298828" y="42.519999999999996" font-family="Virgil, Segoe UI Emoji" font-size="20px" fill="#1e1e1e" text-anchor="middle" style="white-space: pre;" direction="ltr" dominant-baseline="alphabetic">Requests</text></g><g mask="url(#mask-UuoAIBvIfyQu5lpCm3cNp)" stroke-linecap="round"><g transform="translate(285.94105546834976 347.21786492374724) rotate(0 -46.85812365108333 97.53289106753813)"><path d="M0.94 -1.01 C-14.56 6.37, -89.94 10.93, -93.33 43.63 C-96.73 76.33, -31.64 169.86, -19.41 195.21 M-0.02 1.07 C-15.62 8.68, -90.75 12.32, -94.08 44.91 C-97.41 77.5, -32.38 171.84, -20 196.6" stroke="#1e1e1e" stroke-width="2" fill="none"></path></g><g transform="translate(285.94105546834976 347.21786492374724) rotate(0 -46.85812365108333 97.53289106753813)"><path d="M-39.29 180.69 C-35.83 185.5, -29.72 189.76, -20 196.6 M-39.29 180.69 C-33.89 185.95, -27.51 190.03, -20 196.6" stroke="#1e1e1e" stroke-width="2" fill="none"></path></g><g transform="translate(285.94105546834976 347.21786492374724) rotate(0 -46.85812365108333 97.53289106753813)"><path d="M-24.55 172.02 C-25.15 179.3, -23.04 185.91, -20 196.6 M-24.55 172.02 C-23.77 180.06, -21.98 186.85, -20 196.6" stroke="#1e1e1e" stroke-width="2" fill="none"></path></g></g><mask id="mask-UuoAIBvIfyQu5lpCm3cNp"><rect x="0" y="0" fill="#fff" width="479.6573027705164" height="642.2836470588235"></rect><rect x="116.90489239469866" y="366.33769063180824" fill="#000" width="150.63983154296875" height="50" opacity="1"></rect></mask><g transform="translate(116.90489239469872 366.33769063180824) rotate(0 122.404740182142 78.67413364676402)"><text x="75.31991577148438" y="17.52" font-family="Virgil, Segoe UI Emoji" font-size="20px" fill="#1e1e1e" text-anchor="middle" style="white-space: pre;" direction="ltr" dominant-baseline="alphabetic">Business Logic </text><text x="75.31991577148438" y="42.519999999999996" font-family="Virgil, Segoe UI Emoji" font-size="20px" fill="#1e1e1e" text-anchor="middle" style="white-space: pre;" direction="ltr" dominant-baseline="alphabetic">Requests</text></g><g mask="url(#mask--Y5aOr9DsLmo7F8WmWvFC)" stroke-linecap="round"><g transform="translate(280.8291105648111 595.8932461873638) rotate(0 -51.13562411887165 55.98061002178653)"><path d="M0.38 -0.49 C-16.76 7.06, -84.78 25.42, -101.93 44.26 C-119.07 63.11, -102.29 101.23, -102.47 112.59 M-0.87 -1.79 C-18.23 6.06, -85.62 27.15, -102.69 45.88 C-119.77 64.6, -103.26 99.26, -103.33 110.58" stroke="#1e1e1e" stroke-width="2" fill="none"></path></g><g transform="translate(280.8291105648111 595.8932461873638) rotate(0 -51.13562411887165 55.98061002178653)"><path d="M-116.29 89.2 C-112.38 97.82, -106.43 105.01, -103.33 110.58 M-116.29 89.2 C-112.08 96.2, -107.07 103.52, -103.33 110.58" stroke="#1e1e1e" stroke-width="2" fill="none"></path></g><g transform="translate(280.8291105648111 595.8932461873638) rotate(0 -51.13562411887165 55.98061002178653)"><path d="M-99.51 85.87 C-101.98 95.81, -102.37 104.26, -103.33 110.58 M-99.51 85.87 C-101.24 94.11, -102.14 102.6, -103.33 110.58" stroke="#1e1e1e" stroke-width="2" fill="none"></path></g></g><mask id="mask--Y5aOr9DsLmo7F8WmWvFC"><rect x="0" y="0" fill="#fff" width="483.1003588025544" height="807.8544662309369"></rect><rect x="111.17794136759517" y="627.5130718954249" fill="#000" width="134.7598419189453" height="25" opacity="1"></rect></mask><g transform="translate(111.17794136759517 627.5130718954248) rotate(0 114.62525259781691 23.779110822370512)"><text x="67.37992095947266" y="17.52" font-family="Virgil, Segoe UI Emoji" font-size="20px" fill="#1e1e1e" text-anchor="middle" style="white-space: pre;" direction="ltr" dominant-baseline="alphabetic">Data Queries</text></g><g mask="url(#mask-B8e-5l45cOAaYQTrVQuNe)" stroke-linecap="round"><g transform="translate(397.91316798131754 347.21786492374724) rotate(0 46.85756985765153 41.65599128540305)"><path d="M0.35 0.14 C15.87 7.68, 78.08 30.81, 93.52 44.75 C108.96 58.69, 93.01 77.45, 92.99 83.78 M-0.93 -0.83 C14.38 6.41, 76.4 29.21, 92.47 42.96 C108.55 56.71, 95.33 74.93, 95.51 81.69" stroke="#1e1e1e" stroke-width="2" fill="none"></path></g><g transform="translate(397.91316798131754 347.21786492374724) rotate(0 46.85756985765153 41.65599128540305)"><path d="M93.72 62.18 C94.47 68.33, 95.86 73.95, 95.51 81.69 M93.72 62.18 C94.49 68.11, 94.46 74.6, 95.51 81.69" stroke="#1e1e1e" stroke-width="2" fill="none"></path></g><g transform="translate(397.91316798131754 347.21786492374724) rotate(0 46.85756985765153 41.65599128540305)"><path d="M106.68 65.59 C103.14 70.65, 100.23 75.13, 95.51 81.69 M106.68 65.59 C103.06 70.31, 98.64 75.63, 95.51 81.69" stroke="#1e1e1e" stroke-width="2" fill="none"></path></g></g><mask id="mask-B8e-5l45cOAaYQTrVQuNe"><rect x="0" y="0" fill="#fff" width="591.6283076966206" height="530.5298474945533"></rect><rect x="420.03838002328064" y="378.83769063180824" fill="#000" width="143.1798553466797" height="25" opacity="1"></rect></mask><g transform="translate(420.0383800232805 378.83769063180824) rotate(0 27.633724512602214 9.858686765694301)"><text x="71.58992767333984" y="17.52" font-family="Virgil, Segoe UI Emoji" font-size="20px" fill="#1e1e1e" text-anchor="middle" style="white-space: pre;" direction="ltr" dominant-baseline="alphabetic">Load Balancer</text></g><g stroke-linecap="round"><g transform="translate(490.08896844068295 488.1721132897603) rotate(0 -36.20953770332915 27.055766884531593)"><path d="M-0.19 0.63 C-12.44 9.7, -61.06 45.77, -73.14 54.58 M-1.75 -0.08 C-13.64 8.61, -58.83 43.6, -70.81 52.71" stroke="#1e1e1e" stroke-width="2" fill="none"></path></g><g transform="translate(490.08896844068295 488.1721132897603) rotate(0 -36.20953770332915 27.055766884531593)"><path d="M-57.38 31.62 C-60.72 37.33, -65.4 45.01, -70.81 52.71 M-57.38 31.62 C-61.14 35.99, -63.8 42.08, -70.81 52.71" stroke="#1e1e1e" stroke-width="2" fill="none"></path></g><g transform="translate(490.08896844068295 488.1721132897603) rotate(0 -36.20953770332915 27.055766884531593)"><path d="M-46.96 45.19 C-53.74 46.42, -61.85 49.64, -70.81 52.71 M-46.96 45.19 C-53.38 46.07, -58.65 48.75, -70.81 52.71" stroke="#1e1e1e" stroke-width="2" fill="none"></path></g></g><mask></mask><g mask="url(#mask-PspF--jyS1etntRwHBXBl)" stroke-linecap="round"><g transform="translate(374.71756299346566 595.7472766884532) rotate(0 242.50395226937508 24.518680758355373)"><path d="M-0.72 0.47 C12.56 10.9, -1.52 65.84, 79.48 63.17 C160.48 60.5, 417.77 -2.41, 485.27 -15.56 M1.1 -0.33 C14.22 10.2, -2.2 66.8, 78.39 64.4 C158.98 62.01, 416.96 -1.43, 484.64 -14.69" stroke="#1e1e1e" stroke-width="2" fill="none"></path></g><g transform="translate(374.71756299346566 595.7472766884532) rotate(0 242.50395226937508 24.518680758355373)"><path d="M463.53 -1.3 C470.24 -5.43, 474.47 -8.34, 484.64 -14.69 M463.53 -1.3 C468.72 -4.25, 472.9 -6.93, 484.64 -14.69" stroke="#1e1e1e" stroke-width="2" fill="none"></path></g><g transform="translate(374.71756299346566 595.7472766884532) rotate(0 242.50395226937508 24.518680758355373)"><path d="M459.86 -18 C467.7 -17.37, 472.97 -15.54, 484.64 -14.69 M459.86 -18 C465.82 -17.09, 470.84 -15.94, 484.64 -14.69" stroke="#1e1e1e" stroke-width="2" fill="none"></path></g></g><mask id="mask-PspF--jyS1etntRwHBXBl"><rect x="0" y="0" fill="#fff" width="959.7254675322158" height="774.2153617948361"></rect><rect x="402.7330631713867" y="647" fill="#000" width="103.47987365722656" height="25" opacity="1"></rect></mask><g transform="translate(402.7330631713867 647) rotate(0 214.25802415536202 -26.79472014473488)"><text x="51.73993682861328" y="17.52" font-family="Virgil, Segoe UI Emoji" font-size="20px" fill="#1e1e1e" text-anchor="middle" style="white-space: pre;" direction="ltr" dominant-baseline="alphabetic">Replication</text></g><g transform="translate(33.21484375 284.5) rotate(0 89.97990417480469 12.5)"><text x="0" y="17.52" font-family="Virgil, Segoe UI Emoji" font-size="20px" fill="#1e1e1e" text-anchor="start" style="white-space: pre;" direction="ltr" dominant-baseline="alphabetic">Main Data Center</text></g><g transform="translate(784.21484375 478.5) rotate(0 103.22988891601562 12.5)"><text x="0" y="17.52" font-family="Virgil, Segoe UI Emoji" font-size="20px" fill="#1e1e1e" text-anchor="start" style="white-space: pre;" direction="ltr" dominant-baseline="alphabetic">Backup Data Center</text></g></svg>