<svg version="1.1" xmlns="http://www.w3.org/2000/svg" viewBox="0 0 1448.2031250000002 803.3333333333334" width="4344.609375000001" height="2410">
  <!-- svg-source:excalidraw -->
  
  <defs>
    <style class="style-fonts">
      @font-face {
        font-family: "Virgil";
        src: url("https://excalidraw.com/Virgil.woff2");
      }
      @font-face {
        font-family: "Cascadia";
        src: url("https://excalidraw.com/Cascadia.woff2");
      }
      @font-face {
        font-family: "Assistant";
        src: url("https://excalidraw.com/Assistant-Regular.woff2");
      }
    </style>
    
  </defs>
  <rect x="0" y="0" width="1448.2031250000002" height="803.3333333333334" fill="#ffffff"></rect><g stroke-linecap="round" transform="translate(434.29166666666674 10) rotate(0 131.5 100)"><path d="M0 0 C85.85 -1.21, 175.42 -1.45, 263 0 M0 0 C94.39 -1.06, 189.07 0.3, 263 0 M263 0 C263.24 71.76, 261.25 139.79, 263 200 M263 0 C260.8 50.47, 262.4 102.91, 263 200 M263 200 C189.44 199.19, 116.67 199.35, 0 200 M263 200 C189.09 201.6, 115.12 200.55, 0 200 M0 200 C-0.87 155.6, 0.38 108.8, 0 0 M0 200 C-1.14 157.64, -2.24 116.78, 0 0" stroke="#1e1e1e" stroke-width="2" fill="none"></path></g><g stroke-linecap="round" transform="translate(1168.2343750000002 300) rotate(0 134.984375 83.5)"><path d="M0 0 C86.53 0.05, 172.75 0.07, 269.97 0 M0 0 C85.66 2.57, 170.94 1.35, 269.97 0 M269.97 0 C271.04 55.11, 270.57 108.96, 269.97 167 M269.97 0 C269.57 58.27, 268.39 114.12, 269.97 167 M269.97 167 C202.32 167.66, 134.21 167.95, 0 167 M269.97 167 C174.26 167.72, 78.6 168.13, 0 167 M0 167 C1.17 110.82, -0.66 55.3, 0 0 M0 167 C-1.57 120.43, -1.76 71.42, 0 0" stroke="#1e1e1e" stroke-width="2" fill="none"></path></g><g stroke-linecap="round" transform="translate(263.9531250000002 659.3333333333334) rotate(0 139.171875 67)"><path d="M0 0 C69.85 0.42, 138.14 1.54, 278.34 0 M0 0 C58.25 -2.28, 115.98 -1.01, 278.34 0 M278.34 0 C277.17 51.9, 278.93 105.42, 278.34 134 M278.34 0 C279.43 30.77, 279.15 62.65, 278.34 134 M278.34 134 C190.76 135.16, 104.61 134.26, 0 134 M278.34 134 C177.46 132.33, 77.98 131.96, 0 134 M0 134 C-1.82 84.71, -0.34 32.89, 0 0 M0 134 C0.05 98.46, 0.98 65.04, 0 0" stroke="#1e1e1e" stroke-width="2" fill="none"></path></g><g stroke-linecap="round" transform="translate(10 403.16666666666663) rotate(0 144.734375 67)"><path d="M0 0 C67.59 1.54, 133.33 2.19, 289.47 0 M0 0 C109.99 2.33, 220.26 1.5, 289.47 0 M289.47 0 C289.74 37.36, 287.56 79.92, 289.47 134 M289.47 0 C288.69 51.69, 289.31 103.88, 289.47 134 M289.47 134 C196.62 134.69, 103.08 134.34, 0 134 M289.47 134 C223.44 133.06, 157.42 133.59, 0 134 M0 134 C0.89 91.04, 0.4 44.62, 0 0 M0 134 C1.23 82.95, 1.03 29.66, 0 0" stroke="#1e1e1e" stroke-width="2" fill="none"></path></g><g stroke-linecap="round" transform="translate(1223.330729166667 577.9999999999999) rotate(0 97.4609375 67)"><path d="M0 0 C43.7 0.86, 92.67 0.87, 194.92 0 M0 0 C44.63 -1.95, 87.18 -2.19, 194.92 0 M194.92 0 C194.2 31.22, 197.26 58.12, 194.92 134 M194.92 0 C194.4 31.29, 194.5 62.28, 194.92 134 M194.92 134 C129.35 132.91, 59.95 132.28, 0 134 M194.92 134 C141.08 132.69, 85.9 131.77, 0 134 M0 134 C-0.59 80.46, 1.93 27.96, 0 0 M0 134 C-0.21 102.74, 0.36 73.15, 0 0" stroke="#1e1e1e" stroke-width="2" fill="none"></path></g><g stroke-linecap="round" transform="translate(477.02430555555554 415.5) rotate(0 142.65624999999994 67)"><path d="M0 0 C88.65 -0.31, 173.75 -0.6, 285.31 0 M0 0 C111 0.12, 221.53 0.79, 285.31 0 M285.31 0 C286.18 28.81, 283.1 57.5, 285.31 134 M285.31 0 C285.73 37.02, 285.92 74.95, 285.31 134 M285.31 134 C203.12 132.08, 122.79 133.75, 0 134 M285.31 134 C219.34 133.35, 153.61 133.91, 0 134 M0 134 C2.25 85.17, -0.94 40, 0 0 M0 134 C0.63 85.03, -0.53 35.92, 0 0" stroke="#1e1e1e" stroke-width="2" fill="none"></path></g><g stroke-linecap="round" transform="translate(848.2256944444446 308.5) rotate(0 116.2265625 67)"><path d="M0 0 C79.95 -0.45, 163.98 0.7, 232.45 0 M0 0 C64.14 1.25, 128.96 0.33, 232.45 0 M232.45 0 C232.29 52.19, 233.18 106.63, 232.45 134 M232.45 0 C233.19 41.42, 232.61 82.38, 232.45 134 M232.45 134 C171.52 133.28, 110.1 133.98, 0 134 M232.45 134 C163.09 132.09, 92.66 131.89, 0 134 M0 134 C-2.63 103.42, 0.12 72.4, 0 0 M0 134 C-1.29 106.19, -0.58 80.43, 0 0" stroke="#1e1e1e" stroke-width="2" fill="none"></path></g><g stroke-linecap="round"><g transform="translate(434.29166666666674 51) rotate(0 131.5 0)"><path d="M0 0 C93.44 0.93, 183.7 -0.79, 263 0 M0 0 C66.5 -1.43, 135.06 -0.22, 263 0" stroke="#000" stroke-width="1" fill="none"></path></g></g><mask></mask><g stroke-linecap="round"><g transform="translate(434.29166666666674 67) rotate(0 131.5 0)"><path d="M0 0 C86.74 -2.22, 173.45 -3.38, 263 0 M0 0 C91.16 2.06, 180.6 0.84, 263 0" stroke="#000" stroke-width="1" fill="none"></path></g></g><mask></mask><g stroke-linecap="round"><g transform="translate(1168.2343750000002 341) rotate(0 134.984375 0)"><path d="M0 0 C107.14 -1.09, 216.36 -1.09, 269.97 0 M0 0 C63.17 -2.37, 126.29 -2.02, 269.97 0" stroke="#000" stroke-width="1" fill="none"></path></g></g><mask></mask><g stroke-linecap="round"><g transform="translate(1168.2343750000002 357) rotate(0 134.984375 0)"><path d="M0 0 C79.25 0.44, 156.1 3.24, 269.97 0 M0 0 C104.2 1.24, 209.28 1.45, 269.97 0" stroke="#000" stroke-width="1" fill="none"></path></g></g><mask></mask><g stroke-linecap="round"><g transform="translate(263.9531250000002 700.3333333333334) rotate(0 139.171875 0)"><path d="M0 0 C59.81 3.24, 122.98 1.42, 278.34 0 M0 0 C64.99 0.52, 129.95 0.33, 278.34 0" stroke="#000" stroke-width="1" fill="none"></path></g></g><mask></mask><g stroke-linecap="round"><g transform="translate(263.9531250000002 716.3333333333334) rotate(0 139.171875 0)"><path d="M0 0 C62.08 -2.41, 120.45 -2.83, 278.34 0 M0 0 C77.47 -0.26, 154.91 0.3, 278.34 0" stroke="#000" stroke-width="1" fill="none"></path></g></g><mask></mask><g stroke-linecap="round"><g transform="translate(10 444.16666666666663) rotate(0 144.734375 0)"><path d="M0 0 C113.87 -0.27, 229.41 0.67, 289.47 0 M0 0 C88.64 0.82, 176.53 0.88, 289.47 0" stroke="#000" stroke-width="1" fill="none"></path></g></g><mask></mask><g stroke-linecap="round"><g transform="translate(10 460.16666666666663) rotate(0 144.734375 0)"><path d="M0 0 C80.24 1.27, 161.23 1.42, 289.47 0 M0 0 C81.09 -0.71, 162.12 -1.69, 289.47 0" stroke="#000" stroke-width="1" fill="none"></path></g></g><mask></mask><g stroke-linecap="round"><g transform="translate(1223.330729166667 618.9999999999999) rotate(0 97.4609375 0)"><path d="M0 0 C49 0.21, 97.41 0.59, 194.92 0 M0 0 C68.49 -1.89, 137.06 -1.37, 194.92 0" stroke="#000" stroke-width="1" fill="none"></path></g></g><mask></mask><g stroke-linecap="round"><g transform="translate(1223.330729166667 634.9999999999999) rotate(0 97.4609375 0)"><path d="M0 0 C60.73 0.39, 123.31 -0.77, 194.92 0 M0 0 C69.56 1.19, 140.93 0.7, 194.92 0" stroke="#000" stroke-width="1" fill="none"></path></g></g><mask></mask><g stroke-linecap="round"><g transform="translate(477.02430555555554 456.5) rotate(0 142.65624999999994 0)"><path d="M0 0 C93.11 -1.16, 185.53 -1.52, 285.31 0 M0 0 C65.68 -0.09, 131.37 0.44, 285.31 0" stroke="#000" stroke-width="1" fill="none"></path></g></g><mask></mask><g stroke-linecap="round"><g transform="translate(477.02430555555554 472.5) rotate(0 142.65624999999994 0)"><path d="M0 0 C98.66 -0.26, 194.42 -0.73, 285.31 0 M0 0 C80.61 1.48, 160.2 0.79, 285.31 0" stroke="#000" stroke-width="1" fill="none"></path></g></g><mask></mask><g stroke-linecap="round"><g transform="translate(848.2256944444446 349.5) rotate(0 116.2265625 0)"><path d="M0 0 C64.89 -0.42, 131.84 1.45, 232.45 0 M0 0 C54.16 -0.79, 108.6 -0.17, 232.45 0" stroke="#000" stroke-width="1" fill="none"></path></g></g><mask></mask><g stroke-linecap="round"><g transform="translate(848.2256944444446 365.5) rotate(0 116.2265625 0)"><path d="M0 0 C60.27 2.06, 120.05 2.76, 232.45 0 M0 0 C70.86 1.63, 140.65 1.43, 232.45 0" stroke="#000" stroke-width="1" fill="none"></path></g></g><mask></mask><g mask="url(#mask-83D2hp9Zp231vomNOv6ev)" stroke-linecap="round"><g transform="translate(433.29166666666674 176.22997760293492) rotate(0 -143.46119684663648 112.46834453186585)"><path d="M0.48 -0.82 C-47.04 36.72, -238.11 187.51, -285.95 224.96 M-0.73 1.37 C-48.25 39.13, -238.65 189.3, -286.39 226.5" stroke="#1e1e1e" stroke-width="2" fill="none"></path></g><g transform="translate(433.29166666666674 176.22997760293492) rotate(0 -143.46119684663648 112.46834453186585)"><path d="M-288.04 225.91 L-281.59 212.99 L-271.46 222.64 L-284.82 226.43" stroke="none" stroke-width="0" fill="#ffffff" fill-rule="evenodd"></path><path d="M-286.39 226.5 C-285.83 224.63, -283.23 220.76, -279.61 213.12 M-286.39 226.5 C-284.7 223.4, -284.19 221.54, -279.61 213.12 M-279.61 213.12 C-277.24 214.99, -277.64 217.8, -271.78 223.1 M-279.61 213.12 C-277.59 216.31, -275.65 217.98, -271.78 223.1 M-271.78 223.1 C-274.62 224.18, -278.84 224.13, -286.39 226.5 M-271.78 223.1 C-277.58 224.41, -282.32 224.99, -286.39 226.5 M-286.39 226.5 C-286.39 226.5, -286.39 226.5, -286.39 226.5 M-286.39 226.5 C-286.39 226.5, -286.39 226.5, -286.39 226.5" stroke="#1e1e1e" stroke-width="2" fill="none"></path></g></g><mask id="mask-83D2hp9Zp231vomNOv6ev"><rect x="0" y="0" fill="#fff" width="820.2140603599397" height="501.16666666666663"></rect><rect x="219.77430221749114" y="278.6983221348008" fill="#000" width="140.11233520507812" height="20" opacity="1"></rect></mask><g transform="translate(219.77430221749114 278.6983221348008) rotate(0 70.56259434591982 10.375329730995034)"><text x="70.05616760253906" y="14.016" font-family="Virgil, Segoe UI Emoji" font-size="16px" fill="#1e1e1e" text-anchor="middle" style="white-space: pre;" direction="ltr" dominant-baseline="alphabetic">registers_through</text></g><g mask="url(#mask-huGuOzwuWH9wU0Jb8RlRe)" stroke-linecap="round"><g transform="translate(703.291666666667 78.44164709177261) rotate(0 301.76979990597226 109.77917645411372)"><path d="M0.97 0.02 C101.54 36.57, 503.27 181.92, 603.88 218.48 M0.02 -1.02 C100.42 35.71, 502.38 182.52, 603.11 219.45" stroke="#1e1e1e" stroke-width="2" fill="none"></path></g><g transform="translate(703.291666666667 78.44164709177261) rotate(0 301.76979990597226 109.77917645411372)"><path d="M601.12 219.32 L588.48 220.28 L594.09 208.75 L604.08 219.81" stroke="none" stroke-width="0" fill="#ffffff" fill-rule="evenodd"></path><path d="M603.11 219.45 C598.04 220.43, 591.59 221.78, 588.16 220.73 M603.11 219.45 C598.33 220.4, 593.95 219.56, 588.16 220.73 M588.16 220.73 C588.16 217.63, 590.37 212.57, 592.52 208.82 M588.16 220.73 C588.95 217.33, 589.86 215.82, 592.52 208.82 M592.52 208.82 C596.08 211.45, 600.27 215.81, 603.11 219.45 M592.52 208.82 C596.62 211.99, 599.7 215.88, 603.11 219.45 M603.11 219.45 C603.11 219.45, 603.11 219.45, 603.11 219.45 M603.11 219.45 C603.11 219.45, 603.11 219.45, 603.11 219.45" stroke="#1e1e1e" stroke-width="2" fill="none"></path></g></g><mask id="mask-huGuOzwuWH9wU0Jb8RlRe"><rect x="0" y="0" fill="#fff" width="1406.8312664786115" height="398.00000000000006"></rect><rect x="973.0214046219555" y="178.22082354588633" fill="#000" width="64.08012390136719" height="20" opacity="1"></rect></mask><g transform="translate(973.0214046219558 178.22082354588633) rotate(0 32.22143175628048 9.437064582705489)"><text x="32.040061950683594" y="14.016" font-family="Virgil, Segoe UI Emoji" font-size="16px" fill="#1e1e1e" text-anchor="middle" style="white-space: pre;" direction="ltr" dominant-baseline="alphabetic">consults</text></g><g mask="url(#mask-nbDWerqboDJzfx2ppz6b7)" stroke-linecap="round"><g transform="translate(446.9296626988714 211.6458869333153) rotate(0 -50.60115500154859 214.77804445741418)"><path d="M0.34 -1.08 C-16.51 70.48, -83.31 357.67, -100.14 429.36 M-0.94 0.97 C-17.94 72.71, -83.84 359.27, -100.52 430.8" stroke="#1e1e1e" stroke-width="2" fill="none"></path></g><g transform="translate(446.9296626988714 211.6458869333153) rotate(0 -50.60115500154859 214.77804445741418)"><path d="M-100.2 430.34 L-102.06 416.05 L-90.31 419.35 L-100.94 428.96" stroke="none" stroke-width="0" fill="#ffffff" fill-rule="evenodd"></path><path d="M-100.52 430.8 C-103.06 426.55, -103.14 420.39, -103.63 416.13 M-100.52 430.8 C-101.9 426.46, -102.02 423.68, -103.63 416.13 M-103.63 416.13 C-100.53 415.91, -97.57 417.62, -91.28 418.99 M-103.63 416.13 C-99.45 417.9, -94.53 418.67, -91.28 418.99 M-91.28 418.99 C-93.11 423, -96.08 425.58, -100.52 430.8 M-91.28 418.99 C-94.46 421.63, -96.31 426.33, -100.52 430.8 M-100.52 430.8 C-100.52 430.8, -100.52 430.8, -100.52 430.8 M-100.52 430.8 C-100.52 430.8, -100.52 430.8, -100.52 430.8" stroke="#1e1e1e" stroke-width="2" fill="none"></path></g></g><mask id="mask-nbDWerqboDJzfx2ppz6b7"><rect x="0" y="0" fill="#fff" width="648.1319727019686" height="741.2019758481437"></rect><rect x="345.88839844439326" y="416.4239313907295" fill="#000" width="100.88021850585938" height="20" opacity="1"></rect></mask><g transform="translate(345.88839844439315 416.4239313907294) rotate(0 50.94867406290024 10.081942088790214)"><text x="50.44010925292969" y="14.016" font-family="Virgil, Segoe UI Emoji" font-size="16px" fill="#1e1e1e" text-anchor="middle" style="white-space: pre;" direction="ltr" dominant-baseline="alphabetic">assessed_by</text></g><g mask="url(#mask-kSx7tj40uraFQVj6RB8EC)" stroke-linecap="round"><g transform="translate(1299.4230427383645 468) rotate(0 -373.8684380358488 101.95569036971494)"><path d="M1.07 -0.19 C-123.51 33.89, -622.18 169.24, -747.13 203.43 M0.17 -1.34 C-124.54 33, -623.37 170.63, -747.75 204.71" stroke="#1e1e1e" stroke-width="2" fill="none"></path></g><g transform="translate(1299.4230427383645 468) rotate(0 -373.8684380358488 101.95569036971494)"><path d="M-746.18 204.64 L-735.35 195.36 L-733.38 205.37 L-746.5 203.3" stroke="none" stroke-width="0" fill="#ffffff" fill-rule="evenodd"></path><path d="M-747.75 204.71 C-744.16 202.18, -740.77 197.16, -736.33 194.99 M-747.75 204.71 C-743.24 201.52, -738.99 196.57, -736.33 194.99 M-736.33 194.99 C-736.1 199.09, -733.25 202.85, -732.96 207.22 M-736.33 194.99 C-735.63 197.74, -734.95 199.95, -732.96 207.22 M-732.96 207.22 C-735.75 205.83, -740.59 206.54, -747.75 204.71 M-732.96 207.22 C-735.59 207.07, -739.53 206.31, -747.75 204.71 M-747.75 204.71 C-747.75 204.71, -747.75 204.71, -747.75 204.71 M-747.75 204.71 C-747.75 204.71, -747.75 204.71, -747.75 204.71" stroke="#1e1e1e" stroke-width="2" fill="none"></path></g></g><mask id="mask-kSx7tj40uraFQVj6RB8EC"><rect x="0" y="0" fill="#fff" width="2147.159918810062" height="771.9113807394299"></rect><rect x="831.8264018826915" y="559.955690369715" fill="#000" width="187.45640563964844" height="20" opacity="1"></rect></mask><g transform="translate(831.8264018826915 559.9556903697148) rotate(0 94.25359723027799 9.730279775857923)"><text x="93.72820281982422" y="14.016" font-family="Virgil, Segoe UI Emoji" font-size="16px" fill="#1e1e1e" text-anchor="middle" style="white-space: pre;" direction="ltr" dominant-baseline="alphabetic">delegates_assessments</text></g><g mask="url(#mask-TqZH2qntsdk22fnvaU5LC)" stroke-linecap="round"><g transform="translate(562.3827774420403 745.4187045485564) rotate(0 326.45835086231335 -44.8225278883221)"><path d="M0.61 -0.48 C109.11 -15.22, 543.52 -73.61, 652.06 -88.62 M-0.53 -1.78 C108.26 -16.82, 545.21 -75.55, 654.32 -90.2" stroke="#1e1e1e" stroke-width="2" fill="none"></path></g><g transform="translate(562.3827774420403 745.4187045485564) rotate(0 326.45835086231335 -44.8225278883221)"><path d="M655.29 -89.84 L641.28 -83.95 L641.26 -96.08 L653.85 -91.17" stroke="none" stroke-width="0" fill="#ffffff" fill-rule="evenodd"></path><path d="M654.32 -90.2 C648.79 -88.06, 645.77 -85.2, 641.69 -82.11 M654.32 -90.2 C651.33 -89.02, 648.91 -86.67, 641.69 -82.11 M641.69 -82.11 C642.23 -85.36, 639.77 -88.36, 640 -94.67 M641.69 -82.11 C641.1 -86.99, 640.05 -91.6, 640 -94.67 M640 -94.67 C644.55 -92.59, 647.81 -92.74, 654.32 -90.2 M640 -94.67 C642.33 -93.61, 646.32 -93.66, 654.32 -90.2 M654.32 -90.2 C654.32 -90.2, 654.32 -90.2, 654.32 -90.2 M654.32 -90.2 C654.32 -90.2, 654.32 -90.2, 654.32 -90.2" stroke="#1e1e1e" stroke-width="2" fill="none"></path></g></g><mask id="mask-TqZH2qntsdk22fnvaU5LC"><rect x="0" y="0" fill="#fff" width="1315.299479166667" height="935.0637603252006"></rect><rect x="823.216982796541" y="690.5961766602343" fill="#000" width="131.248291015625" height="20" opacity="1"></rect></mask><g transform="translate(823.2169827965411 690.5961766602343) rotate(0 66.06248572975397 9.480662314780062)"><text x="65.6241455078125" y="14.016" font-family="Virgil, Segoe UI Emoji" font-size="16px" fill="#1e1e1e" text-anchor="middle" style="white-space: pre;" direction="ltr" dominant-baseline="alphabetic">sends_tests_to</text></g><g mask="url(#mask-DY3Zq0Ja0KDlQEHneao62)" stroke-linecap="round"><g transform="translate(613.1033714519276 211) rotate(0 47.618790783881934 101.25)"><path d="M-0.86 1.03 C14.73 34.71, 78.13 167.91, 94.15 201.61 M0.89 0.52 C16.79 34.37, 80.69 169.22, 96.29 202.68" stroke="#1e1e1e" stroke-width="2" fill="none"></path></g><g transform="translate(613.1033714519276 211) rotate(0 47.618790783881934 101.25)"><path d="M95.88 200.84 L86.02 191.68 L95.78 186.71 L94.94 201.61" stroke="none" stroke-width="0" fill="#ffffff" fill-rule="evenodd"></path><path d="M96.29 202.68 C93.57 197.87, 87.13 195.9, 84.77 193.08 M96.29 202.68 C92.42 198.87, 87.36 195.07, 84.77 193.08 M84.77 193.08 C86.85 190.9, 92.7 190.11, 96.24 187.68 M84.77 193.08 C88.51 191.62, 92.98 189.69, 96.24 187.68 M96.24 187.68 C94.78 190.37, 94.8 195.8, 96.29 202.68 M96.24 187.68 C96.62 192.49, 95.44 199.19, 96.29 202.68 M96.29 202.68 C96.29 202.68, 96.29 202.68, 96.29 202.68 M96.29 202.68 C96.29 202.68, 96.29 202.68, 96.29 202.68" stroke="#1e1e1e" stroke-width="2" fill="none"></path></g></g><mask id="mask-DY3Zq0Ja0KDlQEHneao62"><rect x="0" y="0" fill="#fff" width="808.3409530196915" height="513.5"></rect><rect x="581.4819965253603" y="302.25" fill="#000" width="158.48033142089844" height="20" opacity="1"></rect></mask><g transform="translate(581.4819965253602 302.25) rotate(0 79.33958887543537 10.352651196122167)"><text x="79.24016571044922" y="14.016" font-family="Virgil, Segoe UI Emoji" font-size="16px" fill="#1e1e1e" text-anchor="middle" style="white-space: pre;" direction="ltr" dominant-baseline="alphabetic">receives_meds_from</text></g><g mask="url(#mask-2BpY3dwLF_hiGwtVuJK4k)" stroke-linecap="round"><g transform="translate(698.291666666667 154.35511142406273) rotate(0 126.43635411640196 76.07244428796864)"><path d="M-1.09 -0.89 C41.21 24.42, 210.61 127.6, 252.9 152.91 M0.55 1.26 C42.76 26.75, 210.09 126.11, 251.97 151.18" stroke="#1e1e1e" stroke-width="2" fill="none"></path></g><g transform="translate(698.291666666667 154.35511142406273) rotate(0 126.43635411640196 76.07244428796864)"><path d="M253.22 149.78 L236.58 148.69 L242.18 137.7 L252.37 151.14" stroke="none" stroke-width="0" fill="#ffffff" fill-rule="evenodd"></path><path d="M251.97 151.18 C247.43 150.73, 246.08 150.09, 237.04 149.67 M251.97 151.18 C248.37 150.31, 245.88 151.02, 237.04 149.67 M237.04 149.67 C240.08 146.99, 241.24 144.12, 243.53 138.78 M237.04 149.67 C239.27 146.63, 240.82 142.76, 243.53 138.78 M243.53 138.78 C244.8 143.71, 250.11 146.01, 251.97 151.18 M243.53 138.78 C245.7 143.46, 249.46 147.57, 251.97 151.18 M251.97 151.18 C251.97 151.18, 251.97 151.18, 251.97 151.18 M251.97 151.18 C251.97 151.18, 251.97 151.18, 251.97 151.18" stroke="#1e1e1e" stroke-width="2" fill="none"></path></g></g><mask id="mask-2BpY3dwLF_hiGwtVuJK4k"><rect x="0" y="0" fill="#fff" width="1051.1643748994709" height="406.5"></rect><rect x="791.7919474798462" y="220.42755571203136" fill="#000" width="65.87214660644531" height="20" opacity="1"></rect></mask><g transform="translate(791.7919474798462 220.42755571203134) rotate(0 32.406735528633135 9.936282782629135)"><text x="32.936073303222656" y="14.016" font-family="Virgil, Segoe UI Emoji" font-size="16px" fill="#1e1e1e" text-anchor="middle" style="white-space: pre;" direction="ltr" dominant-baseline="alphabetic">pays_to</text></g><g transform="translate(524.1119791666667 15) rotate(0 36.90995788574219 12.5)"><text x="0" y="17.52" font-family="Virgil, Segoe UI Emoji" font-size="20px" fill="#1e1e1e" text-anchor="start" style="white-space: pre;" direction="ltr" dominant-baseline="alphabetic">Patient</text></g><g transform="translate(441.79166666666674 72) rotate(0 51.599937438964844 12.5)"><text x="0" y="17.52" font-family="Virgil, Segoe UI Emoji" font-size="20px" fill="#1e1e1e" text-anchor="start" style="white-space: pre;" direction="ltr" dominant-baseline="alphabetic">+register()</text></g><g transform="translate(441.79166666666674 105) rotate(0 33.81996154785156 12.5)"><text x="0" y="17.52" font-family="Virgil, Segoe UI Emoji" font-size="20px" fill="#1e1e1e" text-anchor="start" style="white-space: pre;" direction="ltr" dominant-baseline="alphabetic">+login()</text></g><g transform="translate(441.79166666666674 138) rotate(0 91.39990234375 12.5)"><text x="0" y="17.52" font-family="Virgil, Segoe UI Emoji" font-size="20px" fill="#1e1e1e" text-anchor="start" style="white-space: pre;" direction="ltr" dominant-baseline="alphabetic">+bookAppointment()</text></g><g transform="translate(441.79166666666674 171) rotate(0 100.889892578125 12.5)"><text x="0" y="17.52" font-family="Virgil, Segoe UI Emoji" font-size="20px" fill="#1e1e1e" text-anchor="start" style="white-space: pre;" direction="ltr" dominant-baseline="alphabetic">+viewMedicalRecord()</text></g><g transform="translate(1262.9375000000002 305) rotate(0 33.84996795654297 12.5)"><text x="0" y="17.52" font-family="Virgil, Segoe UI Emoji" font-size="20px" fill="#1e1e1e" text-anchor="start" style="white-space: pre;" direction="ltr" dominant-baseline="alphabetic">Doctor</text></g><g transform="translate(1175.7343750000002 362) rotate(0 94.77989959716797 12.5)"><text x="0" y="17.52" font-family="Virgil, Segoe UI Emoji" font-size="20px" fill="#1e1e1e" text-anchor="start" style="white-space: pre;" direction="ltr" dominant-baseline="alphabetic">+viewAppointments()</text></g><g transform="translate(1175.7343750000002 395) rotate(0 89.02989959716797 12.5)"><text x="0" y="17.52" font-family="Virgil, Segoe UI Emoji" font-size="20px" fill="#1e1e1e" text-anchor="start" style="white-space: pre;" direction="ltr" dominant-baseline="alphabetic">+recordDiagnosis()</text></g><g transform="translate(1175.7343750000002 428) rotate(0 106.71987915039062 12.5)"><text x="0" y="17.52" font-family="Virgil, Segoe UI Emoji" font-size="20px" fill="#1e1e1e" text-anchor="start" style="white-space: pre;" direction="ltr" dominant-baseline="alphabetic">+prescribeMedication()</text></g><g transform="translate(367.6875000000002 664.3333333333334) rotate(0 27.319969177246094 12.5)"><text x="0" y="17.52" font-family="Virgil, Segoe UI Emoji" font-size="20px" fill="#1e1e1e" text-anchor="start" style="white-space: pre;" direction="ltr" dominant-baseline="alphabetic">Nurse</text></g><g transform="translate(271.4531250000002 721.3333333333334) rotate(0 105.3798828125 12.5)"><text x="0" y="17.52" font-family="Virgil, Segoe UI Emoji" font-size="20px" fill="#1e1e1e" text-anchor="start" style="white-space: pre;" direction="ltr" dominant-baseline="alphabetic">+performAssessment()</text></g><g transform="translate(271.4531250000002 754.3333333333334) rotate(0 118.08985900878906 12.5)"><text x="0" y="17.52" font-family="Virgil, Segoe UI Emoji" font-size="20px" fill="#1e1e1e" text-anchor="start" style="white-space: pre;" direction="ltr" dominant-baseline="alphabetic">+updatePatientHistory()</text></g><g transform="translate(79.71875 408.16666666666663) rotate(0 58.98992919921875 12.5)"><text x="0" y="17.52" font-family="Virgil, Segoe UI Emoji" font-size="20px" fill="#1e1e1e" text-anchor="start" style="white-space: pre;" direction="ltr" dominant-baseline="alphabetic">Receptionist</text></g><g transform="translate(17.5 465.16666666666663) rotate(0 110.61988067626953 12.5)"><text x="0" y="17.52" font-family="Virgil, Segoe UI Emoji" font-size="20px" fill="#1e1e1e" text-anchor="start" style="white-space: pre;" direction="ltr" dominant-baseline="alphabetic">+manageAppointments()</text></g><g transform="translate(17.5 498.16666666666663) rotate(0 88.50989532470703 12.5)"><text x="0" y="17.52" font-family="Virgil, Segoe UI Emoji" font-size="20px" fill="#1e1e1e" text-anchor="start" style="white-space: pre;" direction="ltr" dominant-baseline="alphabetic">+registerPatient()</text></g><g transform="translate(1242.299479166667 582.9999999999999) rotate(0 65.41992950439453 12.5)"><text x="0" y="17.52" font-family="Virgil, Segoe UI Emoji" font-size="20px" fill="#1e1e1e" text-anchor="start" style="white-space: pre;" direction="ltr" dominant-baseline="alphabetic">LabAssistant</text></g><g transform="translate(1230.830729166667 639.9999999999999) rotate(0 79.91990661621094 12.5)"><text x="0" y="17.52" font-family="Virgil, Segoe UI Emoji" font-size="20px" fill="#1e1e1e" text-anchor="start" style="white-space: pre;" direction="ltr" dominant-baseline="alphabetic">+processTests()</text></g><g transform="translate(1230.830729166667 672.9999999999999) rotate(0 81.03990173339844 12.5)"><text x="0" y="17.52" font-family="Virgil, Segoe UI Emoji" font-size="20px" fill="#1e1e1e" text-anchor="start" style="white-space: pre;" direction="ltr" dominant-baseline="alphabetic">+reportResults()</text></g><g transform="translate(552.2821180555555 420.5) rotate(0 53.8099365234375 12.5)"><text x="0" y="17.52" font-family="Virgil, Segoe UI Emoji" font-size="20px" fill="#1e1e1e" text-anchor="start" style="white-space: pre;" direction="ltr" dominant-baseline="alphabetic">Pharmacist</text></g><g transform="translate(484.52430555555554 477.5) rotate(0 103.80988311767578 12.5)"><text x="0" y="17.52" font-family="Virgil, Segoe UI Emoji" font-size="20px" fill="#1e1e1e" text-anchor="start" style="white-space: pre;" direction="ltr" dominant-baseline="alphabetic">+dispenseMedication()</text></g><g transform="translate(484.52430555555554 510.5) rotate(0 119.1398696899414 12.5)"><text x="0" y="17.52" font-family="Virgil, Segoe UI Emoji" font-size="20px" fill="#1e1e1e" text-anchor="start" style="white-space: pre;" direction="ltr" dominant-baseline="alphabetic">+updateMedicationInfo()</text></g><g transform="translate(926.2569444444446 313.5) rotate(0 26.58997344970703 12.5)"><text x="0" y="17.52" font-family="Virgil, Segoe UI Emoji" font-size="20px" fill="#1e1e1e" text-anchor="start" style="white-space: pre;" direction="ltr" dominant-baseline="alphabetic">Billing</text></g><g transform="translate(855.7256944444446 370.5) rotate(0 90.05990600585938 12.5)"><text x="0" y="17.52" font-family="Virgil, Segoe UI Emoji" font-size="20px" fill="#1e1e1e" text-anchor="start" style="white-space: pre;" direction="ltr" dominant-baseline="alphabetic">+generateInvoice()</text></g><g transform="translate(855.7256944444446 403.5) rotate(0 89.98989868164062 12.5)"><text x="0" y="17.52" font-family="Virgil, Segoe UI Emoji" font-size="20px" fill="#1e1e1e" text-anchor="start" style="white-space: pre;" direction="ltr" dominant-baseline="alphabetic">+processPayment()</text></g></svg>